<?xml version="1.0" encoding="UTF-8"?>
<svg width="32" height="32" viewBox="0 0 32 32" xmlns="http://www.w3.org/2000/svg">
  <defs>
    <linearGradient id="trust-gradient" x1="0%" y1="0%" x2="100%" y2="100%">
      <stop offset="0%" style="stop-color:#0500FF;stop-opacity:1" />
      <stop offset="100%" style="stop-color:#3375BB;stop-opacity:1" />
    </linearGradient>
  </defs>
  <path d="M16 2L4 8V14C4 21.5 9.5 28.5 16 30C22.5 28.5 28 21.5 28 14V8L16 2Z" fill="url(#trust-gradient)"/>
  <path d="M16 4L6 9V14C6 20.5 10.5 26.5 16 28C21.5 26.5 26 20.5 26 14V9L16 4Z" fill="white"/>
  <path d="M16 6L8 10V14C8 19.5 11.5 24.5 16 26C20.5 24.5 24 19.5 24 14V10L16 6Z" fill="url(#trust-gradient)"/>
  <path d="M16 8L10 11V14C10 18.5 12.5 22.5 16 24C19.5 22.5 22 18.5 22 14V11L16 8Z" fill="white"/>
  <path d="M16 10L12 12V14C12 17.5 13.5 20.5 16 22C18.5 20.5 20 17.5 20 14V12L16 10Z" fill="url(#trust-gradient)"/>
  <path d="M16 12L14 13V14C14 16.5 14.5 18.5 16 20C17.5 18.5 18 16.5 18 14V13L16 12Z" fill="white"/>
  <circle cx="16" cy="16" r="2" fill="url(#trust-gradient)"/>
</svg>